# xmcd
#
# Track frame offsets:
#	150
#	16655
#	32850
#	52520
#	69875
#	87977
#	104785
#	120780
#	136920
#	153460
#	169657
#	189325
#	206647
#	224715
#	241532
#	257509
#
# Disc length: 3648 seconds
#
# Revision: 1
# Processed by: cddbd v1.5.1PL2 Copyright (c) Steve Scherf et al.
# Submitted via: audiograbber 1.83.01
#
DISCID=c90e3e10
DTITLE=Various Artist - Sc2105
DYEAR=1900
DGENRE=Country
TTITLE0=Ketchum, Hal - Tonight We Might Just Fall In Love Again
TTITLE1=Hayes, Wade - I'm Still Dancin' With You
TTITLE2=Berry, John - Your Love Amazes Me
TTITLE3=Stone, Doug - I Never Knew Love
TTITLE4=Jackson, Alan - I'll Try
TTITLE5=Keith, Toby - Wish I Didn't Know Now
TTITLE6=Trevino, Rick - She Can't Say I Didn't Cry
TTITLE7=Walker, Clay - My Heart Will Never Know
TTITLE8=Ketchum, Hal - Tonight We Might Just Fall In Love Again (Vocals)
TTITLE9=Hayes, Wade - I'm Still Dancin' With You (Vocals)
TTITLE10=Berry, John - Your Love Amazes Me (Vocals)
TTITLE11=Stone, Doug - I Never Knew Love (Vocals)
TTITLE12=Jackson, Alan - I'll Try (Vocals)
TTITLE13=Keith, Toby - Wish I Didn't Know Now (Vocals)
TTITLE14=Trevino, Rick - She Can't Say I Didn't Cry (Vocals)
TTITLE15=Walker, Clay - My Heart Will Never Know (Vocals)
EXTD=
EXTT0=
EXTT1=
EXTT2=
EXTT3=
EXTT4=
EXTT5=
EXTT6=
EXTT7=
EXTT8=
EXTT9=
EXTT10=
EXTT11=
EXTT12=
EXTT13=
EXTT14=
EXTT15=
PLAYORDER=
